<?xml version="1.0" encoding="UTF-8"?>
<svg version="1.1" xmlns="http://www.w3.org/2000/svg" width="1024" height="1024">
<path d="M0 0 C337.92 0 675.84 0 1024 0 C1024 337.92 1024 675.84 1024 1024 C686.08 1024 348.16 1024 0 1024 C0 686.08 0 348.16 0 0 Z " fill="#FEFEFE" transform="translate(0,0)"/>
<path d="M0 0 C24.75 0 49.5 0 75 0 C88.77161737 25.24796519 88.77161737 25.24796519 93 33.62109375 C93.48726562 34.57863052 93.97453125 35.5361673 94.4765625 36.52272034 C95.98739206 39.49279273 97.49400503 42.46497379 99 45.4375 C100.99829308 49.37456669 102.99846843 53.31067251 105 57.24609375 C105.48938049 58.20838898 105.97876099 59.1706842 106.48297119 60.16213989 C110.11403716 67.28974098 113.7861142 74.39532427 117.484375 81.48828125 C117.97470215 82.42925156 118.4650293 83.37022186 118.97021484 84.33970642 C122.19048565 90.50041669 125.48700754 96.61019438 128.890625 102.671875 C130 105 130 105 130 108 C132.44674018 105.76615511 133.94409739 103.55167401 135.49609375 100.6328125 C135.96563477 99.75866699 136.43517578 98.88452148 136.91894531 97.98388672 C137.42006836 97.0404541 137.92119141 96.09702148 138.4375 95.125 C142.45722984 87.6578698 146.52632776 80.22886269 150.75 72.875 C151.23686279 72.02703857 151.72372559 71.17907715 152.2253418 70.30541992 C153.25910774 68.50655131 154.2933852 66.70797658 155.328125 64.90966797 C158.14060421 60.01493561 160.93844543 55.11184524 163.73779297 50.20959473 C164.74788252 48.44120713 165.75860121 46.67318067 166.76953125 44.90527344 C169.96033078 39.32472111 173.1481498 33.74252699 176.32562256 28.15437317 C177.78210051 25.59326419 179.2401731 23.03306475 180.69836426 20.47293091 C181.39146265 19.25502066 182.08378299 18.03666725 182.77526855 16.81784058 C183.73880875 15.11961425 184.70528922 13.42305721 185.671875 11.7265625 C186.2194043 10.76314941 186.76693359 9.79973633 187.33105469 8.80712891 C187.88180664 7.88077637 188.43255859 6.95442383 189 6 C189.64134888 4.4492276 189.64134888 4.4492276 190.2956543 2.86712646 C193.46314803 -0.49102597 194.20437465 -0.46584091 198.644104 -0.7215271 C201.07553621 -0.7389684 203.50733958 -0.72286303 205.93847656 -0.68115234 C207.27895023 -0.67945948 208.61942947 -0.68041072 209.9598999 -0.68380737 C213.59639844 -0.68552907 217.23170976 -0.65025344 220.86793232 -0.60836363 C224.668872 -0.5708573 228.46983888 -0.5673314 232.27093506 -0.56021118 C239.46758895 -0.54156185 246.66369601 -0.49232431 253.86010909 -0.43211424 C262.05343897 -0.36505129 270.24679497 -0.33206076 278.44033098 -0.30194163 C295.2938703 -0.23922479 312.14687734 -0.13368877 329 0 C330.59987461 3.03206952 332.19848242 6.06480523 333.796875 9.09765625 C334.24659668 9.94992798 334.69631836 10.80219971 335.15966797 11.68029785 C339.00264516 18.97457768 342.69906025 26.33123271 346.34375 33.7265625 C348.86466056 38.8103988 351.44460451 43.85514429 354.11088562 48.86386108 C359.2835354 58.59147537 364.24944508 68.41573394 369.16796875 78.2734375 C369.53140507 79.00175026 369.89484138 79.73006302 370.26929092 80.48044586 C372.91153353 85.77721725 375.549884 91.07592357 378.1875 96.375 C380.83993433 101.70372527 383.49379971 107.03172886 386.15105629 112.3580513 C387.19559131 114.45347062 388.23766148 116.55010221 389.27958679 118.64682007 C393.36655889 126.85174983 397.60030285 134.95791007 402 143 C404.34624026 139.94132011 406.18069364 136.91609698 407.93359375 133.4765625 C408.49336914 132.38529053 409.05314453 131.29401855 409.62988281 130.16967773 C410.22639648 128.99993408 410.82291016 127.83019043 411.4375 126.625 C412.70897339 124.14805079 413.98448633 121.67320272 415.26171875 119.19921875 C415.58137604 118.57992996 415.90103333 117.96064117 416.2303772 117.32258606 C418.99328889 111.98431 421.84967871 106.70204259 424.75 101.4375 C429.89180373 92.0937073 434.89568778 82.68097993 439.875 73.25 C451.41199965 51.40628086 463.15051557 29.67588615 475 8 C484.57 8 494.14 8 504 8 C512.68797011 23.74694582 521.02052038 39.64078165 529.23706055 55.63594055 C532.26151842 61.51897209 535.33397868 67.37567555 538.42553711 73.22363281 C541.03635925 78.16358456 543.6229241 83.11555832 546.19897461 88.07373047 C551.29463057 97.87724767 556.46316482 107.63961587 561.6875 117.375 C562.32845711 118.57006482 562.9694077 119.76513315 563.61035156 120.96020508 C565.91826005 125.26182659 568.2262817 129.56337476 570.54101562 133.86132812 C571.84344609 136.28064225 573.14112367 138.70243828 574.4375 141.125 C574.99473755 142.15439697 574.99473755 142.15439697 575.56323242 143.20458984 C578 147.77210955 578 147.77210955 578 150 C578.66 150 579.32 150 580 150 C580.26972374 149.1357906 580.53944748 148.27158119 580.81734467 147.38118362 C581.9777735 144.06354504 583.35237985 141.04355361 584.92248535 137.90106201 C585.35783026 137.02569223 585.35783026 137.02569223 585.80197001 136.13263822 C586.76849488 134.1916567 587.74066972 132.25356358 588.71289062 130.31542969 C589.40977049 128.91895806 590.10631018 127.52231662 590.80253601 126.1255188 C592.6892493 122.34299242 594.58099754 118.5630054 596.4738903 114.78356838 C598.45459559 110.82722701 600.43139129 106.8689327 602.40881348 102.91094971 C605.72816139 96.26861829 609.0508743 89.62797828 612.37548828 82.98828125 C616.22140715 75.30734159 620.06153806 67.62352917 623.89869738 59.93821025 C627.19346302 53.33961159 630.49133549 46.74257275 633.79182386 40.14683461 C635.7631287 36.20734581 637.73334304 32.26732175 639.70075989 28.32588959 C641.5488557 24.62393267 643.40083618 20.92394554 645.25586891 17.22546005 C645.93692636 15.86599547 646.61661455 14.50584396 647.2948513 13.14496994 C648.21872699 11.29177691 649.14746535 9.44110395 650.07751465 7.59100342 C650.59665184 6.55348309 651.11578903 5.51596275 651.65065765 4.44700241 C653 2 653 2 655 0 C656.82345009 -0.24609566 656.82345009 -0.24609566 659.07485962 -0.24050903 C660.35372795 -0.24463303 660.35372795 -0.24463303 661.65843201 -0.24884033 C662.59566605 -0.24164978 663.53290009 -0.23445923 664.49853516 -0.22705078 C665.48393784 -0.22734283 666.46934052 -0.22763489 667.48460388 -0.22793579 C670.75284528 -0.22653864 674.02086076 -0.21095927 677.2890625 -0.1953125 C679.55064774 -0.19158374 681.81223459 -0.18873612 684.07382202 -0.18673706 C690.03495724 -0.17908981 695.99599547 -0.15943194 701.95709229 -0.1373291 C708.03648567 -0.11689417 714.11589469 -0.10774038 720.1953125 -0.09765625 C732.13025102 -0.07618709 744.06511745 -0.042038 756 0 C754.76201864 3.7948438 753.45790002 7.30800601 751.6015625 10.84375 C751.12847656 11.74867188 750.65539062 12.65359375 750.16796875 13.5859375 C749.65878906 14.54757812 749.14960937 15.50921875 748.625 16.5 C748.09261719 17.51320313 747.56023438 18.52640625 747.01171875 19.5703125 C742.91920178 27.33165057 738.72637257 35.03617071 734.50244141 42.7265625 C730.39201817 50.22871944 726.43343944 57.80397205 722.49780273 65.39892578 C719.10059304 71.93707704 715.61217557 78.41850348 712.0625 84.875 C707.76442913 92.69478862 703.59540141 100.57223813 699.5 108.5 C694.93152048 117.34353305 690.24460197 126.10972004 685.44921875 134.83203125 C681.87852127 141.34385587 678.41679743 147.90625833 675 154.5 C671.10901218 162.00883512 667.13689383 169.46409469 663.0625 176.875 C658.18737029 185.74467316 653.49596848 194.69971984 648.85131836 203.69189453 C645.36247403 210.42865094 641.78189216 217.10288771 638.125 223.75 C630.87965384 237.05777866 623.96131114 250.54146512 617 264 C591.26 264 565.52 264 539 264 C522.87701132 232.82888856 522.87701132 232.82888856 515.6875 218.875 C511.32879853 210.41770015 506.94987424 201.97231372 502.5 193.5625 C499.40879415 187.71227566 496.357755 181.84386 493.375 175.9375 C493.03146484 175.26340088 492.68792969 174.58930176 492.33398438 173.89477539 C490 169.2359428 490 169.2359428 490 167 C489.34 167 488.68 167 488 167 C487.7421875 167.84916992 487.484375 168.69833984 487.21875 169.57324219 C485.93612797 173.17958889 484.31142507 176.47020872 482.5 179.828125 C481.97836777 180.80875916 481.97836777 180.80875916 481.44619751 181.8092041 C480.30174336 183.9584487 479.1508886 186.10419514 478 188.25 C477.19272369 189.76309413 476.38592829 191.27644493 475.57958984 192.79003906 C473.89954304 195.94299851 472.21741446 199.09483524 470.53417969 202.24609375 C468.08557229 206.83444985 465.65334552 211.43132086 463.2265625 216.03125 C456.52091895 228.73946729 449.80770163 241.44221543 442.9375 254.0625 C442.44266113 254.97290039 441.94782227 255.88330078 441.43798828 256.82128906 C440.99310059 257.63436523 440.54821289 258.44744141 440.08984375 259.28515625 C439.70691162 259.98519775 439.32397949 260.68523926 438.92944336 261.40649414 C438 263 438 263 437 264 C435.1894795 264.11390071 433.37450928 264.1574495 431.56048584 264.17408752 C429.78966896 264.19349144 429.78966896 264.19349144 427.983078 264.21328735 C426.67607437 264.22226044 425.36907074 264.23123352 424.02246094 264.24047852 C422.64127811 264.25328428 421.2600983 264.26641962 419.87892151 264.27986145 C407.26121723 264.39584669 394.64271621 264.45240253 382.02457809 264.49662876 C372.6933702 264.52988036 363.3631323 264.58944501 354.03234076 264.68413979 C347.47604633 264.74843374 340.92001647 264.78215989 334.36341882 264.79337829 C330.44534422 264.80094593 326.52844016 264.82218152 322.61071014 264.87640572 C318.92325621 264.92683851 315.23759273 264.93945224 311.54984856 264.92315483 C309.55271822 264.92404655 307.55572934 264.96467119 305.55903625 265.00646973 C297.00230903 264.91713869 297.00230903 264.91713869 294.13256359 262.29124737 C292.81761583 260.23145679 291.89131813 258.2706517 291 256 C290.32561417 254.72003046 289.64028183 253.44569864 288.9387207 252.18041992 C288.26416187 250.86559957 287.59329957 249.54887743 286.92578125 248.23046875 C286.56053345 247.51660507 286.19528564 246.80274139 285.81896973 246.06724548 C285.04538874 244.55450618 284.27337191 243.04096608 283.50283813 241.52667236 C281.4881493 237.56754151 279.46191393 233.61432049 277.4375 229.66015625 C277.043918 228.8905658 276.650336 228.12097534 276.24482727 227.32806396 C273.470948 221.90731178 270.66455201 216.50509201 267.8125 211.125 C263.81055177 203.56413321 259.86604379 195.974247 255.9375 188.375 C255.62453979 187.76970459 255.31157959 187.16440918 254.98913574 186.54077148 C251.16401968 179.14088569 247.34851409 171.73608588 243.5390625 164.328125 C242.78524238 162.86279053 242.03141753 161.39745848 241.27758789 159.93212891 C239.84571033 157.14865357 238.41539674 154.3643829 236.98608398 151.57958984 C232.40930454 142.67342816 227.73606037 133.82245973 223 125 C218.85531628 131.52201175 214.9713396 138.17347937 211.125 144.875 C210.12473071 146.61258182 209.12445998 148.35016281 208.12409973 150.08769226 C205.77943875 154.16144007 203.43815819 158.23713027 201.09716797 162.31298828 C194.08058399 174.52676768 187.01373758 186.70671804 179.8125 198.8125 C175.60114004 205.89246747 171.39875785 212.9744899 167.33178711 220.13867188 C166.3674471 221.82590327 165.38792713 223.50455651 164.39282227 225.17382812 C161.61170159 229.88662697 159.31960323 234.5531295 157.2734375 239.6328125 C154.41724409 246.22362519 151.71286723 252.42442142 146 257 C135.8512045 261.00886517 124.1711757 260.90033277 114 257 C107.75755373 252.26918834 105.12639998 245.15781866 102.30126953 238.07373047 C100.25425025 233.23846353 97.50564574 228.89410014 94.75 224.4375 C93.66236689 222.60671426 92.57915393 220.77329656 91.5 218.9375 C90.93796875 217.98488281 90.3759375 217.03226563 89.796875 216.05078125 C84.61526004 207.2533002 79.4586109 198.44113822 74.29916382 189.63064575 C71.75738318 185.290912 69.21164372 180.95351818 66.6640625 176.6171875 C59.93675905 165.16463296 53.21933842 153.70607353 46.55767822 142.21517944 C45.58859167 140.54496873 44.6163602 138.87658399 43.64404297 137.20825195 C43.06154785 136.20109131 42.47905273 135.19393066 41.87890625 134.15625 C41.3691626 133.27775391 40.85941895 132.39925781 40.33422852 131.49414062 C39.02503457 129.04679839 37.97739219 126.59551603 37 124 C34.15451833 126.50589744 32.63505061 129.26685695 30.8828125 132.609375 C30.28267334 133.74455566 29.68253418 134.87973633 29.06420898 136.04931641 C28.59058426 136.95342255 28.59058426 136.95342255 28.10739136 137.87579346 C26.43188029 141.07233401 24.73769221 144.25892669 23.04296875 147.4453125 C22.7005867 148.08959198 22.35820465 148.73387146 22.00544739 149.39767456 C18.91446627 155.19659806 15.69827732 160.91990277 12.4375 166.625 C7.21247884 175.77960902 2.19110066 185.03130576 -2.77856445 194.32666016 C-6.50456607 201.27658171 -10.3322294 208.15665741 -14.25 215 C-20.80449906 226.45927542 -26.95093887 238.12858182 -33.08496094 249.81640625 C-33.65139061 250.89411285 -33.65139061 250.89411285 -34.22926331 251.99359131 C-34.94143465 253.34939548 -35.65207939 254.70600301 -36.36094666 256.0635376 C-37.80279222 258.80970619 -39.27719645 261.41579467 -41 264 C-42.79221535 264.36914349 -42.79221535 264.36914349 -44.99893188 264.36076355 C-46.25255775 264.36694954 -46.25255775 264.36694954 -47.5315094 264.3732605 C-48.45004196 264.36247467 -49.36857452 264.35168884 -50.31494141 264.34057617 C-51.28083694 264.34101425 -52.24673248 264.34145233 -53.24189758 264.34190369 C-56.44532246 264.339808 -59.64822868 264.31644007 -62.8515625 264.29296875 C-65.0683056 264.28737557 -67.28505241 264.28310416 -69.50180054 264.28010559 C-75.34462673 264.26863494 -81.18723024 264.2391486 -87.02996826 264.20599365 C-92.98869819 264.1753406 -98.947464 264.16161045 -104.90625 264.14648438 C-116.60426466 264.11428108 -128.30211384 264.06305791 -140 264 C-138.71162224 260.04214304 -137.31171383 256.40953058 -135.3828125 252.71875 C-134.86452881 251.72343262 -134.34624512 250.72811523 -133.81225586 249.70263672 C-133.25546143 248.6457666 -132.69866699 247.58889648 -132.125 246.5 C-131.25597046 244.83928467 -131.25597046 244.83928467 -130.36938477 243.14501953 C-126.14827193 235.10693686 -121.82491688 227.12795428 -117.45166016 219.171875 C-113.87966989 212.65900474 -110.4175029 206.0951031 -107 199.5 C-103.10901218 191.99116488 -99.13689383 184.53590531 -95.0625 177.125 C-90.18815873 168.2567613 -85.49757556 159.3031356 -80.85351562 150.3125 C-77.34285743 143.53387512 -73.7439187 136.81225791 -70.0625 130.125 C-65.58016851 121.98071069 -61.25779585 113.76379907 -57 105.5 C-52.36177169 96.5016857 -47.62905063 87.5690146 -42.75 78.69921875 C-38.2531939 70.50818612 -33.87326417 62.25737287 -29.5 54 C-24.54197501 44.64363648 -19.5701089 35.29631593 -14.5 26 C-14.06880859 25.20851563 -13.63761719 24.41703125 -13.19335938 23.6015625 C-8.86528901 15.69413197 -4.42019948 7.85813241 0 0 Z " fill="#9C0806" transform="translate(204,380)"/>
<path d="M0 0 C22.44 0 44.88 0 68 0 C73.89780784 11.20583489 79.75026506 22.37699132 85.34375 33.7265625 C87.86466056 38.8103988 90.44460451 43.85514429 93.11088562 48.86386108 C98.2835354 58.59147537 103.24944508 68.41573394 108.16796875 78.2734375 C108.53140507 79.00175026 108.89484138 79.73006302 109.26929092 80.48044586 C111.91153353 85.77721725 114.549884 91.07592357 117.1875 96.375 C119.83993433 101.70372527 122.49379971 107.03172886 125.15105629 112.3580513 C126.19559131 114.45347062 127.23766148 116.55010221 128.27958679 118.64682007 C132.36655889 126.85174983 136.60030285 134.95791007 141 143 C143.34624026 139.94132011 145.18069364 136.91609698 146.93359375 133.4765625 C147.49336914 132.38529053 148.05314453 131.29401855 148.62988281 130.16967773 C149.22639648 128.99993408 149.82291016 127.83019043 150.4375 126.625 C151.70897339 124.14805079 152.98448633 121.67320272 154.26171875 119.19921875 C154.58137604 118.57992996 154.90103333 117.96064117 155.2303772 117.32258606 C157.99328889 111.98431 160.84967871 106.70204259 163.75 101.4375 C168.89180373 92.0937073 173.89568778 82.68097993 178.875 73.25 C190.41199965 51.40628086 202.15051557 29.67588615 214 8 C223.57 8 233.14 8 243 8 C251.68797011 23.74694582 260.02052038 39.64078165 268.23706055 55.63594055 C271.26151842 61.51897209 274.33397868 67.37567555 277.42553711 73.22363281 C280.03635925 78.16358456 282.6229241 83.11555832 285.19897461 88.07373047 C290.29463057 97.87724767 295.46316482 107.63961587 300.6875 117.375 C301.32845711 118.57006482 301.9694077 119.76513315 302.61035156 120.96020508 C304.91826005 125.26182659 307.2262817 129.56337476 309.54101562 133.86132812 C310.84344609 136.28064225 312.14112367 138.70243828 313.4375 141.125 C313.8089917 141.81126465 314.1804834 142.4975293 314.56323242 143.20458984 C317 147.77210955 317 147.77210955 317 150 C317.66 150 318.32 150 319 150 C319.26972374 149.1357906 319.53944748 148.27158119 319.81734467 147.38118362 C320.9777735 144.06354504 322.35237985 141.04355361 323.92248535 137.90106201 C324.21271529 137.31748216 324.50294522 136.73390231 324.80197001 136.13263822 C325.76849488 134.1916567 326.74066972 132.25356358 327.71289062 130.31542969 C328.40977049 128.91895806 329.10631018 127.52231662 329.80253601 126.1255188 C331.6892493 122.34299242 333.58099754 118.5630054 335.4738903 114.78356838 C337.45459559 110.82722701 339.43139129 106.8689327 341.40881348 102.91094971 C344.72816139 96.26861829 348.0508743 89.62797828 351.37548828 82.98828125 C355.22140715 75.30734159 359.06153806 67.62352917 362.89869738 59.93821025 C366.19346302 53.33961159 369.49133549 46.74257275 372.79182386 40.14683461 C374.7631287 36.20734581 376.73334304 32.26732175 378.70075989 28.32588959 C380.5488557 24.62393267 382.40083618 20.92394554 384.25586891 17.22546005 C384.93692636 15.86599547 385.61661455 14.50584396 386.2948513 13.14496994 C387.21872699 11.29177691 388.14746535 9.44110395 389.07751465 7.59100342 C389.85622044 6.03472292 389.85622044 6.03472292 390.65065765 4.44700241 C392 2 392 2 394 0 C395.82345009 -0.24609566 395.82345009 -0.24609566 398.07485962 -0.24050903 C399.35372795 -0.24463303 399.35372795 -0.24463303 400.65843201 -0.24884033 C401.59566605 -0.24164978 402.53290009 -0.23445923 403.49853516 -0.22705078 C404.48393784 -0.22734283 405.46934052 -0.22763489 406.48460388 -0.22793579 C409.75284528 -0.22653864 413.02086076 -0.21095927 416.2890625 -0.1953125 C418.55064774 -0.19158374 420.81223459 -0.18873612 423.07382202 -0.18673706 C429.03495724 -0.17908981 434.99599547 -0.15943194 440.95709229 -0.1373291 C447.03648567 -0.11689417 453.11589469 -0.10774038 459.1953125 -0.09765625 C471.13025102 -0.07618709 483.06511745 -0.042038 495 0 C493.76201864 3.7948438 492.45790002 7.30800601 490.6015625 10.84375 C490.12847656 11.74867188 489.65539062 12.65359375 489.16796875 13.5859375 C488.65878906 14.54757812 488.14960937 15.50921875 487.625 16.5 C487.09261719 17.51320313 486.56023437 18.52640625 486.01171875 19.5703125 C481.91920178 27.33165057 477.72637257 35.03617071 473.50244141 42.7265625 C469.39201817 50.22871944 465.43343944 57.80397205 461.49780273 65.39892578 C458.10059304 71.93707704 454.61217557 78.41850348 451.0625 84.875 C446.76442913 92.69478862 442.59540141 100.57223813 438.5 108.5 C433.93152048 117.34353305 429.24460197 126.10972004 424.44921875 134.83203125 C420.87852127 141.34385587 417.41679743 147.90625833 414 154.5 C410.10901218 162.00883512 406.13689383 169.46409469 402.0625 176.875 C397.18737029 185.74467316 392.49596848 194.69971984 387.85131836 203.69189453 C384.36247403 210.42865094 380.78189216 217.10288771 377.125 223.75 C369.87965384 237.05777866 362.96131114 250.54146512 356 264 C330.26 264 304.52 264 278 264 C261.87701132 232.82888856 261.87701132 232.82888856 254.6875 218.875 C250.32879853 210.41770015 245.94987424 201.97231372 241.5 193.5625 C238.40879415 187.71227566 235.357755 181.84386 232.375 175.9375 C232.03146484 175.26340088 231.68792969 174.58930176 231.33398438 173.89477539 C229 169.2359428 229 169.2359428 229 167 C228.34 167 227.68 167 227 167 C226.7421875 167.84916992 226.484375 168.69833984 226.21875 169.57324219 C224.93612797 173.17958889 223.31142507 176.47020872 221.5 179.828125 C221.15224518 180.4818811 220.80449036 181.13563721 220.44619751 181.8092041 C219.30174336 183.9584487 218.1508886 186.10419514 217 188.25 C216.19272369 189.76309413 215.38592829 191.27644493 214.57958984 192.79003906 C212.89954304 195.94299851 211.21741446 199.09483524 209.53417969 202.24609375 C207.08557229 206.83444985 204.65334552 211.43132086 202.2265625 216.03125 C195.52091895 228.73946729 188.80770163 241.44221543 181.9375 254.0625 C181.44266113 254.97290039 180.94782227 255.88330078 180.43798828 256.82128906 C179.99310059 257.63436523 179.54821289 258.44744141 179.08984375 259.28515625 C178.70691162 259.98519775 178.32397949 260.68523926 177.92944336 261.40649414 C177 263 177 263 176 264 C174.58774954 264.0928726 173.17091066 264.11746772 171.75561523 264.11352539 C170.85475693 264.11344986 169.95389862 264.11337433 169.02574158 264.11329651 C168.04658279 264.10813522 167.06742401 264.10297394 166.05859375 264.09765625 C165.06118668 264.0962413 164.0637796 264.09482635 163.03614807 264.09336853 C159.83656876 264.08775114 156.63705831 264.07519571 153.4375 264.0625 C151.27408955 264.05748724 149.11067801 264.05292395 146.94726562 264.04882812 C141.63148675 264.03777607 136.31574829 264.02102104 131 264 C129.76627904 261.73154534 128.53804473 259.46036842 127.3125 257.1875 C126.97283203 256.56423828 126.63316406 255.94097656 126.28320312 255.29882812 C123.22842517 249.61751211 120.68932662 243.91651856 118 238 C131.86 237.67 145.72 237.34 160 237 C161.8975 233.32875 163.795 229.6575 165.75 225.875 C170.57093068 216.5775343 175.50231461 207.35051142 180.54785156 198.17333984 C184.11950402 191.65970577 187.582115 185.09548031 191 178.5 C195.24854133 170.30516072 199.60617488 162.18068726 204.05175781 154.09130859 C211.86998856 139.81884642 219.40872069 125.39401892 227 111 C227.99 111 228.98 111 230 111 C230.5576001 112.12305542 230.5576001 112.12305542 231.12646484 113.26879883 C240.37318887 131.89240342 240.37318887 131.89240342 249.95849609 150.34301758 C254.21200255 158.35779759 258.35224608 166.43017531 262.5 174.5 C269.32572241 187.77560705 269.32572241 187.77560705 276.25 201 C276.62044434 201.70181396 276.99088867 202.40362793 277.37255859 203.12670898 C278.14061061 204.58171333 278.90867743 206.03670985 279.67675781 207.49169922 C282.50064007 212.84457123 285.31707984 218.20123636 288.125 223.5625 C288.70668945 224.66529297 289.28837891 225.76808594 289.88769531 226.90429688 C290.42233398 227.92716797 290.95697266 228.95003906 291.5078125 230.00390625 C291.98879395 230.91986572 292.46977539 231.8358252 292.96533203 232.77954102 C294 235 294 235 294 237 C316.77 236.505 316.77 236.505 340 236 C342.3925 231.33875 344.785 226.6775 347.25 221.875 C352.55974713 211.56036645 357.95490233 201.30812461 363.55957031 191.14990234 C367.49352044 183.99425131 371.26058924 176.758946 375 169.5 C379.21481769 161.31846399 383.49438498 153.1848825 387.9375 145.125 C392.60443336 136.65677415 397.08103432 128.09917388 401.5 119.5 C406.37690373 110.00969248 411.36021471 100.59100539 416.51171875 91.24609375 C421.0790111 82.92971382 425.42315461 74.50311673 429.76733398 66.06860352 C434.09078259 57.69639224 438.5393757 49.40109082 443.09375 41.15234375 C443.55007813 40.32476562 444.00640625 39.4971875 444.4765625 38.64453125 C444.86924316 37.93659424 445.26192383 37.22865723 445.66650391 36.49926758 C447.5143607 33.03597391 449.24449564 29.51100872 451 26 C437.47 26 423.94 26 410 26 C409.34 27.98 408.68 29.96 408 32 C407.3561593 33.44625108 406.68011784 34.87870964 405.96875 36.29296875 C405.36933594 37.48889648 405.36933594 37.48889648 404.7578125 38.70898438 C404.34273437 39.52689453 403.92765625 40.34480469 403.5 41.1875 C402.92378906 42.33895508 402.92378906 42.33895508 402.3359375 43.51367188 C399.83349572 48.48314353 397.25792572 53.41169162 394.65321159 58.32805157 C389.14011574 68.74480532 383.81134956 79.24499013 378.5546875 89.79296875 C377.69151345 91.52119202 376.82815675 93.24932408 375.96463013 94.97737122 C373.72035785 99.46967913 371.47848665 103.96318081 369.23718262 108.45697021 C366.97077781 113.00003644 364.7020982 117.54196632 362.43359375 122.08398438 C359.4790034 128.00015108 356.52508932 133.91665384 353.57270241 139.83392048 C352.07967116 142.82621486 350.58628677 145.8183329 349.09281158 148.81040573 C348.35538853 150.28793152 347.61810228 151.76552558 346.8809433 153.24318314 C345.79949228 155.41079854 344.71744026 157.57811297 343.63525391 159.74536133 C343.3169908 160.38358668 342.99872768 161.02181204 342.67082024 161.67937756 C339.68467209 167.65681975 336.6009237 173.58153684 333.5 179.5 C328.56522667 188.95107788 323.71671837 198.43831411 319 208 C318.34 208 317.68 208 317 208 C316.21520264 206.4679895 316.21520264 206.4679895 315.41455078 204.9050293 C300.24293032 175.25139437 300.24293032 175.25139437 284.66796875 145.80859375 C283.42417684 143.49755776 282.18062839 141.18639278 280.9375 138.875 C280.62311981 138.29078278 280.30873962 137.70656555 279.98483276 137.10464478 C274.26528262 126.46599413 268.72535129 115.73990424 263.21878052 104.98980713 C258.43749124 95.66118858 253.55325194 86.40606873 248.48266602 77.23046875 C241.72923906 64.95872732 235.39286226 52.46213519 229 40 C226.20346947 42.46569677 224.7445337 45.11519153 223.06640625 48.42578125 C222.50663086 49.52027588 221.94685547 50.61477051 221.37011719 51.74243164 C221.07600952 52.32348663 220.78190186 52.90454163 220.47888184 53.50320435 C218.91173224 56.59736973 217.32455945 59.68123419 215.73828125 62.765625 C215.41862396 63.38800552 215.09896667 64.01038605 214.7696228 64.65162659 C212.01438296 70.00299938 209.15622059 75.2920173 206.25 80.5625 C201.06165127 89.98706847 196.02023698 99.48525555 191 109 C185.97974896 118.51477111 180.93712785 128.01223883 175.75 137.4375 C170.10176984 147.70976617 164.71778395 158.11352227 159.34375 168.53125 C155.99953791 175.01305238 152.60972771 181.46999463 149.19482422 187.91479492 C146.72896005 192.57778642 144.34415976 197.27455577 142 202 C141.34 202 140.68 202 140 202 C139.59797363 201.19071045 139.19594727 200.3814209 138.78173828 199.54760742 C137.23645746 196.43963105 135.68915179 193.33267799 134.140625 190.22631836 C133.48067741 188.9015053 132.82145654 187.57632988 132.16308594 186.25073242 C128.30581921 178.48575778 124.36905653 170.77203197 120.3046875 163.11328125 C113.39353109 150.06971989 106.88252886 136.82442837 100.31347656 123.60644531 C92.33537294 107.54429031 92.33537294 107.54429031 84.0703125 91.62890625 C78.09538218 80.38324533 72.40378182 68.99495751 66.70996094 57.60522461 C65.15843348 54.50206595 63.60131393 51.40174696 62.04296684 48.30200863 C60.54330893 45.31640192 59.04934022 42.32795928 57.5546875 39.33984375 C56.995466 38.22858627 56.43624451 37.1173288 55.8600769 35.97239685 C55.35179352 34.95275345 54.84351013 33.93311005 54.31982422 32.88256836 C53.87033417 31.98501328 53.42084412 31.08745819 52.95773315 30.16270447 C52 28 52 28 52 26 C39.13 26 26.26 26 13 26 C8.66666667 17.33333333 4.33333333 8.66666667 0 0 Z " fill="#020202" transform="translate(465,380)"/>
<path d="M0 0 C13.86 0 27.72 0 42 0 C48.95523407 13.13766436 55.7950089 26.33119364 62.58178711 39.55639648 C66.30668315 46.80887473 70.067338 54.04059905 73.875 61.25 C79.62653769 72.14560461 85.22469388 83.11825367 90.82275391 94.09326172 C95.63978655 103.53336449 100.47811948 112.96105616 105.40625 122.34375 C105.80912231 123.1121521 106.21199463 123.8805542 106.6270752 124.67224121 C108.99684752 129.16896807 111.45345069 133.60088689 114 138 C118.08264316 131.60944476 121.81883488 125.06607056 125.5 118.4375 C126.74959676 116.1963897 127.99960568 113.95550916 129.25 111.71484375 C130.19166016 110.02657471 130.19166016 110.02657471 131.15234375 108.30419922 C133.91733875 103.35950547 136.70757894 98.42924143 139.5 93.5 C144.02226384 85.51236559 148.51965181 77.51121861 153 69.5 C157.48034916 61.48877965 161.97803088 53.48780233 166.5 45.5 C175.06469886 30.36955875 183.55646433 15.1983642 192 0 C204.21 0 216.42 0 229 0 C230.98 4.125 232.96 8.25 235 12.5 C240.89749063 24.75052708 246.92247443 36.93268212 253.05273438 49.06835938 C256.28453 55.48039698 259.44816107 61.91834704 262.52436829 68.40664673 C267.80819262 79.54843247 273.2582024 90.6004726 278.78125 101.625 C279.36834212 102.79702406 279.36834212 102.79702406 279.96729469 103.99272537 C282.80868493 109.66324541 285.65394528 115.33181999 288.5 121 C291.74215327 127.45704672 294.98271516 133.91488439 298.21875 140.375 C298.60812429 141.15220713 298.99749859 141.92941425 299.3986721 142.73017311 C304.95857779 153.83550927 310.39512361 164.98993674 315.71533203 176.21240234 C319.21931886 183.59080847 322.9171916 190.87095191 326.62280273 198.1496582 C327.52665792 199.92748324 328.4255366 201.70783567 329.32421875 203.48828125 C329.84072998 204.50446533 330.35724121 205.52064941 330.8894043 206.56762695 C332 209 332 209 332 211 C320.12 211 308.24 211 296 211 C291.05794833 202.15999208 286.12305501 193.32093352 281.375 184.375 C281.05217041 183.76922119 280.72934082 183.16344238 280.39672852 182.53930664 C277.94119835 177.88827188 275.58814308 173.18746271 273.2421875 168.48046875 C269.1465008 160.26382963 264.96166242 152.09517464 260.75 143.9375 C260.00014512 142.48340754 259.25030816 141.02930583 258.50048828 139.57519531 C253.84158913 130.54483456 249.15755582 121.527888 244.44921875 112.52319336 C240.84778164 105.6332489 237.26633433 98.73309421 233.69522095 91.82739258 C232.75598615 90.01157301 231.81591076 88.19619055 230.87573242 86.38085938 C227.79502981 80.4290001 224.72619728 74.47144408 221.68240356 68.50061035 C220.21085885 65.6149841 218.73513049 62.73150659 217.25915527 59.84814453 C216.54760761 58.45503811 215.83819703 57.06083796 215.13098145 55.66552734 C214.14852292 53.72743113 213.15903125 51.79308203 212.16796875 49.859375 C211.60360107 48.75045898 211.0392334 47.64154297 210.45776367 46.49902344 C209.2435005 43.89372968 209.2435005 43.89372968 207 43 C206.75507813 43.66773438 206.51015625 44.33546875 206.2578125 45.0234375 C204.70469836 48.69881941 202.82003219 52.14751821 200.875 55.625 C200.44396973 56.39859863 200.01293945 57.17219727 199.56884766 57.96923828 C195.28948806 65.588658 190.82147334 73.09419502 186.34661865 80.59991455 C181.13361772 89.34605253 176.02811682 98.14637705 171 107 C165.76027287 116.22405959 160.43172034 125.38697201 155 134.5 C148.74488021 144.99488886 142.63969533 155.56551493 136.60009766 166.18530273 C132.52260808 173.35113759 128.38889745 180.47855691 124.18457031 187.57055664 C120.98962462 192.97540929 117.9460553 198.45518861 115 204 C114.34 204 113.68 204 113 204 C112.69932617 203.43829102 112.39865234 202.87658203 112.08886719 202.29785156 C106.23831232 191.39715787 100.26811815 180.60475582 93.85009766 170.02734375 C89.37083509 162.64265232 84.9871466 155.20418443 80.625 147.75 C80.26212891 147.13016235 79.89925781 146.51032471 79.52539062 145.8717041 C77.01466585 141.58245637 74.50665513 137.29162711 72 133 C71.05906494 131.38907471 71.05906494 131.38907471 70.09912109 129.74560547 C67.19267226 124.76794844 64.28858944 119.78892102 61.38671875 114.80859375 C59.1226543 110.92333124 56.85415855 107.0407088 54.58203125 103.16015625 C46.27141226 88.95789992 38.08046907 74.69070085 29.93457031 60.39355469 C26.62782263 54.59297508 23.31373944 48.79658737 20 43 C17.56146421 46.07029264 15.70939436 49.24074646 13.8828125 52.70703125 C13.28267334 53.83898926 12.68253418 54.97094727 12.06420898 56.13720703 C11.74845917 56.73583557 11.43270935 57.33446411 11.10739136 57.95123291 C6.02081375 67.58841003 0.84197803 77.16150847 -4.5625 86.625 C-9.84970913 95.8912596 -14.94131879 105.25201773 -19.97851562 114.65625 C-23.67271557 121.54933816 -27.42270573 128.40608057 -31.24072266 135.23120117 C-34.73920101 141.49805928 -38.15340566 147.80915774 -41.5625 154.125 C-45.4217362 161.27035696 -49.30999348 168.39368378 -53.31640625 175.45751953 C-59.98693115 187.24312421 -66.46553088 199.13911487 -73 211 C-85.87 211 -98.74 211 -112 211 C-102.78943803 192.57887606 -102.78943803 192.57887606 -99.703125 186.7734375 C-99.34745453 186.10106552 -98.99178406 185.42869354 -98.62533569 184.73594666 C-97.50223977 182.61455516 -96.37628838 180.494698 -95.25 178.375 C-94.45490092 176.8752518 -93.65981649 175.37549583 -92.86474609 173.87573242 C-88.04013202 164.78528933 -83.15237781 155.73194184 -78.19628906 146.71240234 C-74.18647803 139.39540157 -70.33282085 132.00187526 -66.49414062 124.59399414 C-63.11980122 118.09926837 -59.65316215 111.66229471 -56.125 105.25 C-51.6230306 97.06352407 -47.27916562 88.80499808 -43 80.5 C-38.39001288 71.55617413 -33.68530144 62.67871208 -28.83349609 53.86401367 C-23.20977425 43.61809276 -17.76928893 33.275263 -12.31738281 22.93725586 C-11.94457184 22.23085968 -11.57176086 21.5244635 -11.18765259 20.79666138 C-10.49694851 19.48762489 -9.80691117 18.17823623 -9.11776733 16.86837769 C-6.13434423 11.21305394 -3.06294829 5.61540519 0 0 Z " fill="#FEFBFB" transform="translate(220,406)"/>
<path d="M0 0 C12.54 0 25.08 0 38 0 C40.55492187 5.12144531 43.10984375 10.24289062 45.7421875 15.51953125 C47.38258655 18.80545178 49.02310822 22.09130998 50.6640625 25.37695312 C53.25638607 30.5675285 55.84830543 35.75830238 58.4375 40.95043945 C69.76708578 63.76966153 69.76708578 63.76966153 81.51095581 86.37666321 C87.82512039 98.24947991 93.70231344 110.35236781 99.68652344 122.39355469 C106.31606145 135.72582142 113.02186935 149.00238561 120.01852417 162.14610291 C126 173.44443581 126 173.44443581 126 176 C126.66 176 127.32 176 128 176 C128.23976563 175.195625 128.47953125 174.39125 128.7265625 173.5625 C130.29005665 169.18855316 132.28147622 165.14102263 134.375 161 C134.81489258 160.12480713 135.25478516 159.24961426 135.70800781 158.34790039 C139.40600741 151.04972844 143.30559207 143.87121039 147.25537109 136.70703125 C151.29056348 129.36520514 155.16461013 121.94788975 159 114.5 C163.61397398 105.54788744 168.32376809 96.66275744 173.1796875 87.83984375 C177.88011334 79.27571709 182.44086312 70.63983051 187 62 C195.49600856 45.90458105 204.14653454 29.90208569 213 14 C213.99 14 214.98 14 216 14 C216.45213867 14.88445801 216.90427734 15.76891602 217.37011719 16.68017578 C227.89496066 37.33539701 227.89496066 37.33539701 238.875 57.75 C244.75226736 68.36184795 250.24414191 79.16479074 255.75973511 89.96722412 C260.37433605 99.00052367 265.01186604 108.00600911 269.9375 116.875 C276.55559854 128.79526865 282.69736329 140.96329736 288.88452148 153.11083984 C289.71067377 154.73149679 290.536925 156.35210329 291.36328125 157.97265625 C291.76008591 158.75187439 292.15689056 159.53109253 292.5657196 160.33392334 C295.54181091 166.1578718 298.63409671 171.90911211 301.80932617 177.62670898 C303 180 303 180 303 182 C306.00646475 179.42383061 307.36584598 176.51580072 309.0390625 172.9609375 C309.3212262 172.36738968 309.60338989 171.77384186 309.894104 171.16230774 C310.49708123 169.8931566 311.09738754 168.62273365 311.69525146 167.35116577 C313.25630041 164.03318098 314.83863071 160.72540736 316.421875 157.41796875 C316.73273041 156.76792374 317.04358582 156.11787872 317.36386108 155.44813538 C320.02659137 149.9004197 322.83642542 144.4484086 325.76838875 139.03931236 C328.12991756 134.6665453 330.40632356 130.25759866 332.61572266 125.8059082 C333.3200877 124.39205882 334.0244538 122.97820997 334.7288208 121.56436157 C335.09811958 120.82200382 335.46741837 120.07964607 335.84790802 119.31479263 C337.43347588 116.12905672 339.02323838 112.94542114 340.61292076 109.76173687 C341.912575 107.15889326 343.21174016 104.55580597 344.51083374 101.9526825 C347.91937555 95.12330857 351.32994635 88.29494825 354.74074364 81.46670055 C357.31455548 76.31386169 359.88761324 71.16064911 362.45898438 66.0065918 C364.97570036 60.96216931 367.49445998 55.91877183 370.01454544 50.87603188 C370.9615514 48.98020044 371.90786477 47.08402284 372.853405 45.18745995 C378.00180964 34.8619622 383.21709393 24.58044867 388.62944603 14.39034557 C389.01321718 13.66750031 389.39698833 12.94465506 389.79238892 12.1999054 C390.12330851 11.57933919 390.4542281 10.95877298 390.79517555 10.31940174 C392.57109925 6.90057958 394.27708097 3.44583807 396 0 C409.53 0 423.06 0 437 0 C435.66052495 4.01842516 434.51754608 7.19439886 432.6015625 10.84375 C432.1286377 11.74834961 431.65571289 12.65294922 431.16845703 13.58496094 C430.4044458 15.02790527 430.4044458 15.02790527 429.625 16.5 C429.09116699 17.51610352 428.55733398 18.53220703 428.00732422 19.57910156 C423.96545223 27.24525266 419.81840217 34.85129161 415.64306641 42.4453125 C411.02254248 50.88266107 406.61453131 59.42492205 402.20922852 67.97607422 C398.58429065 74.99468758 394.87601772 81.95721718 391.0625 88.875 C386.39556664 97.34322585 381.91896568 105.90082612 377.5 114.5 C372.62309627 123.99030752 367.63978529 133.40899461 362.48828125 142.75390625 C358.54030902 149.94259366 354.75598316 157.20942606 351 164.5 C344.84858105 176.43665173 338.47682228 188.23749516 332 200 C330.02 203.63 328.04 207.26 326 211 C310.82 211 295.64 211 280 211 C276.7 204.4 273.4 197.8 270 191 C266.39438798 184.11672444 266.39438798 184.11672444 262.765625 177.24609375 C258.91192065 169.9572575 255.13376856 162.62905038 251.34863281 155.30444336 C248.41473679 149.63371047 245.46183499 143.97427454 242.47961426 138.32884216 C238.50693369 130.80660478 234.58085805 123.263249 230.71875 115.68359375 C230.28755859 114.83789825 229.85636719 113.99220276 229.41210938 113.12088013 C227.65445943 109.6717474 225.8980347 106.22201031 224.14648438 102.76977539 C222.84067929 100.19761338 221.53011355 97.62792528 220.21875 95.05859375 C219.82296753 94.27544296 219.42718506 93.49229218 219.01940918 92.68540955 C216.92476732 88.55425571 216.92476732 88.55425571 214 85 C213.63874023 85.7027002 213.27748047 86.40540039 212.90527344 87.12939453 C206.34293501 99.87890295 199.73775201 112.5917692 192.82324219 125.15478516 C188.12188218 133.72071837 183.55981148 142.35822313 179 151 C173.45792638 161.50228189 167.86885938 171.97313782 162.15136719 182.38134766 C156.96195782 191.84881075 151.98502815 201.42349855 147 211 C132.81 211 118.62 211 104 211 C92.50778408 189.16478976 92.50778408 189.16478976 88.96850586 182.06640625 C88.34426476 180.82055252 88.34426476 180.82055252 87.70741272 179.54953003 C86.37458642 176.88816702 85.0445864 174.2254049 83.71484375 171.5625 C82.76432179 169.6621328 81.8136813 167.76182488 80.8629303 165.86157227 C78.887711 161.91259319 76.91390943 157.96290983 74.94116211 154.01269531 C72.44076988 149.00621311 69.93678642 144.00153726 67.43172359 138.99739075 C65.47317704 135.08394953 63.51657456 131.16953873 61.56051826 127.25485229 C60.63911819 125.4113957 59.71714765 123.56822409 58.7945385 121.72537231 C53.39005939 110.92724538 48.099821 100.08550659 42.96736145 89.1552887 C40.5275146 83.97291587 37.97308691 78.84949881 35.38867188 73.73779297 C30.63940516 64.3255009 25.92829887 54.8939133 21.20769501 45.4672184 C19.55700351 42.17105384 17.90552772 38.87528651 16.25244141 35.58032227 C14.62693924 32.3402501 13.00344256 29.09918009 11.38127899 25.85743523 C10.47872516 24.05502991 9.57413934 22.25364256 8.66949463 20.45228577 C0 3.11447747 0 3.11447747 0 0 Z " fill="#FCFCFC" transform="translate(479,406)"/>
<path d="M0 0 C3 1 3 1 4.11914062 2.77832031 C4.46138672 3.53725586 4.80363281 4.29619141 5.15625 5.078125 C5.53910156 5.90957031 5.92195313 6.74101562 6.31640625 7.59765625 C6.90228516 8.91056641 6.90228516 8.91056641 7.5 10.25 C8.27890109 11.96461065 9.06009053 13.67818393 9.84375 15.390625 C10.21113281 16.19822266 10.57851563 17.00582031 10.95703125 17.83789062 C12.03239952 20.1661198 12.03239952 20.1661198 13.78125 22.859375 C15 25 15 25 15 29 C15.66 29 16.32 29 17 29 C18.76462683 32.08809695 19 33.23312136 19 37 C19.66 37 20.32 37 21 37 C21 38.32 21 39.64 21 41 C21.66 41 22.32 41 23 41 C23 42.65 23 44.3 23 46 C20.87060156 43.30629761 19.24843509 40.68861105 17.80078125 37.578125 C17.39988281 36.72476563 16.99898438 35.87140625 16.5859375 34.9921875 C16.16570312 34.08726562 15.74546875 33.18234375 15.3125 32.25 C11.81456707 24.80012514 8.25050583 17.39624345 4.51293945 10.06347656 C2.83946066 6.76185626 1.31145863 3.46225078 0 0 Z " fill="#891917" transform="translate(470,450)"/>
<path d="M0 0 C0.33 0.66 0.66 1.32 1 2 C0.04692201 3.74183219 -0.91411417 5.48056772 -1.94140625 7.1796875 C-3.21463353 9.36907464 -4.13552013 11.62268035 -5 14 C-5.66 14 -6.32 14 -7 14 C-7.20625 14.78375 -7.4125 15.5675 -7.625 16.375 C-9.49034873 21.29273755 -12.20865195 25.55842103 -15 30 C-15.66 29.67 -16.32 29.34 -17 29 C-14.74171834 25.02950748 -12.48134306 21.06021746 -10.21899414 17.09204102 C-9.44920696 15.7411352 -8.67999926 14.38989901 -7.91137695 13.03833008 C-6.80831608 11.09890584 -5.70319629 9.16066808 -4.59765625 7.22265625 C-4.25283707 6.61535172 -3.90801788 6.00804718 -3.55274963 5.38233948 C-1.11387171 1.11387171 -1.11387171 1.11387171 0 0 Z " fill="#891F1D" transform="translate(371,546)"/>
<path d="M0 0 C0.99 0.33 1.98 0.66 3 1 C-0.96 7.93 -4.92 14.86 -9 22 C-9.33 22 -9.66 22 -10 22 C-10 20.35 -10 18.7 -10 17 C-9.34 17 -8.68 17 -8 17 C-7.8453125 16.195625 -7.8453125 16.195625 -7.6875 15.375 C-6.81907303 12.37497956 -5.44379704 9.7620465 -4 7 C-3.34 7 -2.68 7 -2 7 C-1.855625 6.401875 -1.71125 5.80375 -1.5625 5.1875 C-1.1127561 3.43849596 -0.57107659 1.71322977 0 0 Z " fill="#891917" transform="translate(367,482)"/>
<path d="M0 0 C0.66 0 1.32 0 2 0 C0.23465356 4.84015316 -2.19536725 9.2835127 -4.625 13.8125 C-5.04523438 14.60076172 -5.46546875 15.38902344 -5.8984375 16.20117188 C-6.9300009 18.13535326 -7.96391172 20.06823983 -9 22 C-10.1171875 18.28125 -10.1171875 18.28125 -9.0625 15.75 C-8.711875 15.1725 -8.36125 14.595 -8 14 C-7.34 14 -6.68 14 -6 14 C-6 12.68 -6 11.36 -6 10 C-5.34 10 -4.68 10 -4 10 C-3.855625 9.4225 -3.71125 8.845 -3.5625 8.25 C-3.04166667 6.16666667 -2.52083333 4.08333333 -2 2 C-1.34 2 -0.68 2 0 2 C0 1.34 0 0.68 0 0 Z " fill="#891C1B" transform="translate(151,532)"/>
<path d="M0 0 C2.9281855 3.60249951 5.02412528 7.5407989 7.1875 11.625 C7.55552734 12.305625 7.92355469 12.98625 8.30273438 13.6875 C11 18.75175383 11 18.75175383 11 21 C8 20 8 20 6.92504883 18.48120117 C6.60560303 17.84158447 6.28615723 17.20196777 5.95703125 16.54296875 C5.60576172 15.84236328 5.25449219 15.14175781 4.89257812 14.41992188 C4.53615234 13.68322266 4.17972656 12.94652344 3.8125 12.1875 C3.44447266 11.46240234 3.07644531 10.73730469 2.69726562 9.99023438 C0.8451395 6.23443873 0 4.32708051 0 0 Z " fill="#8A2221" transform="translate(279,381)"/>
<path d="M0 0 C0.66 0.99 1.32 1.98 2 3 C1.21625 4.051875 0.4325 5.10375 -0.375 6.1875 C-2.00283485 8.44002217 -3.07100539 10.18795545 -4.0625 12.8125 C-5.23571804 15.55000876 -6.35575987 15.82419101 -9 17 C-6.16541556 11.22627678 -3.25633172 5.54782441 0 0 Z " fill="#8C1F1D" transform="translate(409,480)"/>
<path d="M0 0 C0.66 0 1.32 0 2 0 C0.51481201 4.04301175 -1.42877998 7.61146256 -3.625 11.3125 C-4.25664062 12.38113281 -4.88828125 13.44976563 -5.5390625 14.55078125 C-6.26222656 15.76314453 -6.26222656 15.76314453 -7 17 C-7.33 15.68 -7.66 14.36 -8 13 C-7.34 13 -6.68 13 -6 13 C-6 11.68 -6 10.36 -6 9 C-5.34 9 -4.68 9 -4 9 C-3.34 7.02 -2.68 5.04 -2 3 C-1.34 3 -0.68 3 0 3 C0 2.01 0 1.02 0 0 Z " fill="#8B1D1C" transform="translate(373,592)"/>
<path d="M0 0 C2.66648371 3.33105349 4.6669681 6.87197848 6.6875 10.625 C7.62142578 12.34589844 7.62142578 12.34589844 8.57421875 14.1015625 C10 17 10 17 10 19 C9.34 19 8.68 19 8 19 C7.16180842 17.37750059 6.3295884 15.75191503 5.5 14.125 C5.0359375 13.22007812 4.571875 12.31515625 4.09375 11.3828125 C3 9 3 9 3 7 C2.34 7 1.68 7 1 7 C1 6.01 1 5.02 1 4 C0.34 4 -0.32 4 -1 4 C-0.67 2.68 -0.34 1.36 0 0 Z " fill="#881C1B" transform="translate(476,541)"/>
<path d="M0 0 C1.18407653 3.5522296 0.48730675 4.78479459 -1.03125 8.08203125 C-2.57022786 11.12895918 -4.26143326 14.06242172 -6 17 C-6.66 17 -7.32 17 -8 17 C-6.3341708 10.83643195 -3.12194714 5.51740344 0 0 Z " fill="#8F2321" transform="translate(166,450)"/>
<path d="M0 0 C0.66 0 1.32 0 2 0 C3.33838733 2.45570175 4.67086232 4.91429916 6 7.375 C6.57234375 8.42300781 6.57234375 8.42300781 7.15625 9.4921875 C10 14.7734375 10 14.7734375 10 17 C9.34 17 8.68 17 8 17 C4 10.375 4 10.375 4 7 C3.34 7 2.68 7 2 7 C0.5393715 4.35261084 0 3.10551666 0 0 Z " fill="#8B211F" transform="translate(307,437)"/>
<path d="M0 0 C1.38748664 4.16245991 -0.0768473 6.00237584 -1.875 9.8359375 C-3.047553 12.09147348 -4.33000318 14.07950366 -6 16 C-6.66 15.67 -7.32 15.34 -8 15 C-5.36 10.05 -2.72 5.1 0 0 Z " fill="#8E201E" transform="translate(75,621)"/>
<path d="M0 0 C3 1 3 1 4.82421875 4.16015625 C5.45553148 5.45600869 6.07625399 6.75706229 6.6875 8.0625 C7.00783203 8.72572266 7.32816406 9.38894531 7.65820312 10.07226562 C8.4478598 11.71050858 9.22512362 13.35471454 10 15 C9.01 15.495 9.01 15.495 8 16 C5.36 10.72 2.72 5.44 0 0 Z " fill="#881918" transform="translate(474,595)"/>
<path d="M0 0 C0.66 0.99 1.32 1.98 2 3 C1.67386719 3.50789062 1.34773438 4.01578125 1.01171875 4.5390625 C-1.56588877 8.59936461 -3.93284834 12.64810177 -6 17 C-6.66 17 -7.32 17 -8 17 C-6.3341708 10.83643195 -3.12194714 5.51740344 0 0 Z " fill="#8A1E1C" transform="translate(109,557)"/>
<path d="M0 0 C0.66 0.66 1.32 1.32 2 2 C-0.31 6.29 -2.62 10.58 -5 15 C-5.33 15 -5.66 15 -6 15 C-6 13.35 -6 11.7 -6 10 C-5.34 10 -4.68 10 -4 10 C-3.67 7.69 -3.34 5.38 -3 3 C-2.01 3 -1.02 3 0 3 C0 2.01 0 1.02 0 0 Z " fill="#8C1A19" transform="translate(213,547)"/>
<path d="M0 0 C1.18469826 3.55409479 0.48826871 4.84207735 -1.03125 8.1484375 C-2.48513621 10.92723615 -4.18947136 13.44028709 -6 16 C-6.66 15.67 -7.32 15.34 -8 15 C-5.36 10.05 -2.72 5.1 0 0 Z " fill="#8C1F1D" transform="translate(197,524)"/>
<path d="M0 0 C1.53271273 4.58798777 0.02911182 6.77944742 -2 11 C-2.66 11 -3.32 11 -4 11 C-4.33 12.32 -4.66 13.64 -5 15 C-5.66 15 -6.32 15 -7 15 C-5.63408831 11.45756548 -4.09068516 8.07372071 -2.375 4.6875 C-1.70597656 3.36298828 -1.70597656 3.36298828 -1.0234375 2.01171875 C-0.68570313 1.34785156 -0.34796875 0.68398438 0 0 Z " fill="#8E201E" transform="translate(128,521)"/>
<path d="M0 0 C3 1 3 1 4.82421875 4.37890625 C5.45592589 5.76866196 6.07661796 7.16346534 6.6875 8.5625 C7.00783203 9.27341797 7.32816406 9.98433594 7.65820312 10.71679688 C8.44820496 12.47366662 9.22533623 14.23631345 10 16 C9.34 16.33 8.68 16.66 8 17 C6.66161267 14.54429825 5.32913768 12.08570084 4 9.625 C3.6184375 8.92632813 3.236875 8.22765625 2.84375 7.5078125 C0 2.2265625 0 2.2265625 0 0 Z " fill="#861513" transform="translate(319,516)"/>
<path d="M0 0 C0.99 0 1.98 0 3 0 C3 1.32 3 2.64 3 4 C3.66 4 4.32 4 5 4 C6.32 7.3 7.64 10.6 9 14 C8.01 14.495 8.01 14.495 7 15 C4.69 10.05 2.38 5.1 0 0 Z " fill="#891918" transform="translate(496,503)"/>
<path d="M0 0 C0.66 0 1.32 0 2 0 C0.23570801 4.97209562 -2.3939166 9.43438061 -5 14 C-6.1171875 10.28125 -6.1171875 10.28125 -5.0625 7.75 C-4.5365625 6.88375 -4.5365625 6.88375 -4 6 C-3.34 6 -2.68 6 -2 6 C-1.855625 5.195625 -1.71125 4.39125 -1.5625 3.5625 C-1 1 -1 1 0 0 Z " fill="#891B19" transform="translate(381,458)"/>
<path d="M0 0 C1.04592976 4.18371904 1.12781643 4.51651445 -0.75 8 C-1.12125 8.6909375 -1.4925 9.381875 -1.875 10.09375 C-3.11122109 12.18845795 -4.44225229 14.13070275 -6 16 C-6.66 15.67 -7.32 15.34 -8 15 C-5.36 10.05 -2.72 5.1 0 0 Z " fill="#8B1E1C" transform="translate(189,407)"/>
<path d="M0 0 C0.66 0 1.32 0 2 0 C1.41892368 3.7602985 0.34800504 6.53035032 -1.5625 9.8125 C-2.01753906 10.60269531 -2.47257813 11.39289063 -2.94140625 12.20703125 C-3.29074219 12.79871094 -3.64007813 13.39039063 -4 14 C-4.66 13.67 -5.32 13.34 -6 13 C-6 12.34 -6 11.68 -6 11 C-5.34 11 -4.68 11 -4 11 C-3.855625 10.401875 -3.71125 9.80375 -3.5625 9.1875 C-3.1127561 7.43849596 -2.57107659 5.71322977 -2 4 C-1.34 4 -0.68 4 0 4 C0 2.68 0 1.36 0 0 Z " fill="#8C1D1C" transform="translate(217,407)"/>
<path d="M0 0 C0.66 0.33 1.32 0.66 2 1 C2 2.32 2 3.64 2 5 C2.66 5 3.32 5 4 5 C4 5.99 4 6.98 4 8 C4.66 8 5.32 8 6 8 C5.67 9.32 5.34 10.64 5 12 C2.13546142 8.58983503 0.65296434 5.09305456 -1 1 C-0.67 0.67 -0.34 0.34 0 0 Z " fill="#8E1D1C" transform="translate(543,595)"/>
<path d="M0 0 C0.66 0 1.32 0 2 0 C0.43358249 4.30764815 -1.68336156 8.06171464 -4 12 C-5.04449911 8.86650268 -4.93423645 8.01031744 -4 5 C-3.34 5 -2.68 5 -2 5 C-2 4.01 -2 3.02 -2 2 C-1.34 2 -0.68 2 0 2 C0 1.34 0 0.68 0 0 Z " fill="#8A1918" transform="translate(353,508)"/>
<path d="M0 0 C1 2 1 2 0.3125 4.25 C-1.18526213 7.38816827 -3.01250158 10.15125227 -5 13 C-5.66 12.67 -6.32 12.34 -7 12 C-4.69 8.04 -2.38 4.08 0 0 Z " fill="#891E1C" transform="translate(417,467)"/>
<path d="M0 0 C1 4 1 4 0.00390625 6.359375 C-0.47175781 7.14828125 -0.94742187 7.9371875 -1.4375 8.75 C-1.91058594 9.54921875 -2.38367188 10.3484375 -2.87109375 11.171875 C-3.24363281 11.77515625 -3.61617188 12.3784375 -4 13 C-4.99 13 -5.98 13 -7 13 C-3.535 6.565 -3.535 6.565 0 0 Z " fill="#8B211F" transform="translate(358,447)"/>
<path d="M0 0 C3 3 3 3 4 6 C3.34 6 2.68 6 2 6 C2 5.34 2 4.68 2 4 C-0.87420123 6.71604715 -0.87420123 6.71604715 -3 10 C-3.66 9.67 -4.32 9.34 -5 9 C-3.35 6.03 -1.7 3.06 0 0 Z " fill="#842623" transform="translate(239,448)"/>
<path d="M0 0 C3.33511388 2.9901021 5.21521119 5.89498574 7 10 C7 10.66 7 11.32 7 12 C4 11 4 11 2.83203125 9.00390625 C2.49558594 8.19824219 2.15914063 7.39257812 1.8125 6.5625 C1.46832031 5.75941406 1.12414062 4.95632813 0.76953125 4.12890625 C0 2 0 2 0 0 Z " fill="#8D2523" transform="translate(437,467)"/>
<path d="M0 0 C1 4 1 4 0.22265625 5.921875 C-0.8515625 7.61458333 -1.92578125 9.30729167 -3 11 C-3.99 11 -4.98 11 -6 11 C-4.02 7.37 -2.04 3.74 0 0 Z " fill="#8B211F" transform="translate(349,463)"/>
<path d="M0 0 C1 4 1 4 -0.1875 7.125 C-2 10 -2 10 -6 12 C-4.02 8.04 -2.04 4.08 0 0 Z " fill="#8C211F" transform="translate(366,433)"/>
<path d="M0 0 C1 4 1 4 -0.1875 7.125 C-2 10 -2 10 -6 12 C-4.02 8.04 -2.04 4.08 0 0 Z " fill="#8C201E" transform="translate(386,398)"/>
<path d="M0 0 C3 1 3 1 4.38671875 3.28515625 C4.81597656 4.20167969 5.24523437 5.11820313 5.6875 6.0625 C6.34298828 7.44115234 6.34298828 7.44115234 7.01171875 8.84765625 C7.33785156 9.55792969 7.66398437 10.26820313 8 11 C7.01 11.495 7.01 11.495 6 12 C4.02 8.04 2.04 4.08 0 0 Z " fill="#8A1C1B" transform="translate(304,612)"/>
<path d="M0 0 C1.0169313 2.65498232 1.13022151 3.69155375 0.00390625 6.359375 C-0.47175781 7.14828125 -0.94742188 7.9371875 -1.4375 8.75 C-1.91058594 9.54921875 -2.38367188 10.3484375 -2.87109375 11.171875 C-3.24363281 11.77515625 -3.61617187 12.3784375 -4 13 C-4.66 13 -5.32 13 -6 13 C-4.31326082 8.50202887 -2.18326108 4.27113698 0 0 Z " fill="#8D2523" transform="translate(160,591)"/>
<path d="M0 0 C0.66 0 1.32 0 2 0 C0.77472971 4.05281712 -0.69880494 7.44360764 -3 11 C-3.33 9.68 -3.66 8.36 -4 7 C-3.34 7 -2.68 7 -2 7 C-2 5.35 -2 3.7 -2 2 C-1.34 2 -0.68 2 0 2 C0 1.34 0 0.68 0 0 Z " fill="#8D1D1C" transform="translate(219,536)"/>
<path d="M0 0 C0.66 0 1.32 0 2 0 C0.77782954 4.04256383 -0.62754296 7.49288959 -3 11 C-3.33 11 -3.66 11 -4 11 C-4 9.35 -4 7.7 -4 6 C-3.34 6 -2.68 6 -2 6 C-2 5.01 -2 4.02 -2 3 C-1.34 3 -0.68 3 0 3 C0 2.01 0 1.02 0 0 Z " fill="#891A19" transform="translate(225,525)"/>
<path d="M0 0 C1 3 1 3 -0.25 6.625 C-2 10 -2 10 -5 11 C-3.55049545 7.2089881 -1.84827434 3.6125362 0 0 Z " fill="#8C1C1B" transform="translate(153,604)"/>
<path d="M0 0 C0.66 0 1.32 0 2 0 C3.5078125 2.1875 3.5078125 2.1875 5.125 5 C5.66382813 5.928125 6.20265625 6.85625 6.7578125 7.8125 C7.37269531 8.8953125 7.37269531 8.8953125 8 10 C7.34 10.66 6.68 11.32 6 12 C4.02 8.04 2.04 4.08 0 0 Z " fill="#8A1F1E" transform="translate(291,590)"/>
<path d="M0 0 C2.32472205 2.85306797 3.7508258 5.54074837 5 9 C4.34 9.66 3.68 10.32 3 11 C2.30034557 9.73581754 1.61565237 8.46334598 0.9375 7.1875 C0.55464844 6.47980469 0.17179688 5.77210938 -0.22265625 5.04296875 C-1 3 -1 3 0 0 Z " fill="#8D2120" transform="translate(538,584)"/>
<path d="M0 0 C2.40575607 2.18517099 3.79535581 4.25919671 5.1875 7.1875 C5.53167969 7.90292969 5.87585938 8.61835937 6.23046875 9.35546875 C6.48441406 9.89816406 6.73835938 10.44085937 7 11 C5.109375 10.81640625 5.109375 10.81640625 3 10 C1.953125 7.71484375 1.953125 7.71484375 1.25 4.9375 C1.00765625 4.01839844 0.7653125 3.09929688 0.515625 2.15234375 C0.34546875 1.44207031 0.1753125 0.73179687 0 0 Z " fill="#881D1C" transform="translate(314,577)"/>
<path d="M0 0 C0.66 0 1.32 0 2 0 C0.90931332 3.77545388 0.0916909 6.47043472 -3 9 C-3.66 7.68 -4.32 6.36 -5 5 C-4.01 5 -3.02 5 -2 5 C-2 4.34 -2 3.68 -2 3 C-1.34 3 -0.68 3 0 3 C0 2.01 0 1.02 0 0 Z " fill="#831D1A" transform="translate(337,536)"/>
<path d="M0 0 C1.05609899 3.16829698 1.13055309 3.98519175 0 7 C-1.5 8.625 -1.5 8.625 -3 10 C-3.33 10.66 -3.66 11.32 -4 12 C-4.66 11.67 -5.32 11.34 -6 11 C-4.02 7.37 -2.04 3.74 0 0 Z " fill="#891F1D" transform="translate(391,511)"/>
<path d="M0 0 C0.99 0.33 1.98 0.66 3 1 C3.12375 1.969375 3.2475 2.93875 3.375 3.9375 C3.684375 5.4534375 3.684375 5.4534375 4 7 C4.66 7.33 5.32 7.66 6 8 C5.34 8.66 4.68 9.32 4 10 C3.32845067 8.71086513 2.66291141 7.41859796 2 6.125 C1.62875 5.40570313 1.2575 4.68640625 0.875 3.9453125 C0 2 0 2 0 0 Z " fill="#902523" transform="translate(273,427)"/>
<path d="M0 0 C3 1 3 1 4.75 3.375 C6 6 6 6 5 9 C2.67527795 6.14693203 1.2491742 3.45925163 0 0 Z " fill="#891817" transform="translate(283,576)"/>
<path d="M0 0 C0.33 0 0.66 0 1 0 C1.25532751 3.06393013 1.21861333 4.63233212 -0.375 7.3125 C-1.179375 8.1478125 -1.179375 8.1478125 -2 9 C-2.66 9 -3.32 9 -4 9 C-2.80100302 5.9168649 -1.52299523 2.93720508 0 0 Z " fill="#8F201E" transform="translate(150,480)"/>
<path d="M0 0 C1.04449911 3.13349732 0.93423645 3.98968256 0 7 C-0.66 7 -1.32 7 -2 7 C-2.33 7.99 -2.66 8.98 -3 10 C-3.66 9.67 -4.32 9.34 -5 9 C-3.35 6.03 -1.7 3.06 0 0 Z " fill="#8D201E" transform="translate(373,421)"/>
<path d="M0 0 C1.5 1.25 1.5 1.25 3 3 C3 4.32 3 5.64 3 7 C3.66 7.33 4.32 7.66 5 8 C4.34 8.66 3.68 9.32 3 10 C1.68 7.03 0.36 4.06 -1 1 C-0.67 0.67 -0.34 0.34 0 0 Z " fill="#8F2322" transform="translate(486,615)"/>
<path d="M0 0 C0.99 0.33 1.98 0.66 3 1 C3.6875 3.0625 3.6875 3.0625 4 5 C2.02 5 0.04 5 -2 5 C-1.34 3.35 -0.68 1.7 0 0 Z " fill="#822523" transform="translate(427,449)"/>
<path d="M0 0 C3 1 3 1 5 4 C5.125 6.6875 5.125 6.6875 5 9 C2.67527795 6.14693203 1.2491742 3.45925163 0 0 Z " fill="#8E2020" transform="translate(494,633)"/>
<path d="M0 0 C0.66 0 1.32 0 2 0 C0.7508258 3.45925163 -0.67527795 6.14693203 -3 9 C-2.67 6.69 -2.34 4.38 -2 2 C-1.34 2 -0.68 2 0 2 C0 1.34 0 0.68 0 0 Z " fill="#881B1A" transform="translate(401,544)"/>
</svg>
